<svg width="15" height="15" viewBox="0 0 15 15" fill="none" xmlns="http://www.w3.org/2000/svg">
<path d="M9.73873 0H4.42669C1.98227 0 0 1.97912 0 4.41964V9.72321C0 12.1637 1.98227 14.1429 4.42669 14.1429H9.73873C12.1831 14.1429 14.1654 12.1637 14.1654 9.72321V4.41964C14.1654 1.97912 12.1831 0 9.73873 0ZM12.8374 9.72321C12.8374 11.4292 11.4474 12.817 9.73873 12.817H4.42669C2.71799 12.817 1.32801 11.4292 1.32801 9.72321V4.41964C1.32801 2.71366 2.71799 1.32589 4.42669 1.32589H9.73873C11.4474 1.32589 12.8374 2.71366 12.8374 4.41964V9.72321Z" transform="translate(0.834595 0.571428)" fill="black"/>
<path d="M3.54135 0C1.58564 0 0 1.58312 0 3.53571C0 5.48831 1.58564 7.07143 3.54135 7.07143C5.49707 7.07143 7.08271 5.48831 7.08271 3.53571C7.08271 1.58312 5.49707 0 3.54135 0ZM3.54135 5.74554C2.32136 5.74554 1.32801 4.75377 1.32801 3.53571C1.32801 2.31678 2.32136 1.32589 3.54135 1.32589C4.76135 1.32589 5.7547 2.31678 5.7547 3.53571C5.7547 4.75377 4.76135 5.74554 3.54135 5.74554Z" transform="translate(4.37585 4.10714)" fill="black"/>
<path d="M0.471886 0.942268C0.732501 0.942268 0.943771 0.731334 0.943771 0.471134C0.943771 0.210934 0.732501 0 0.471886 0C0.21127 0 0 0.210934 0 0.471134C0 0.731334 0.21127 0.942268 0.471886 0.942268Z" transform="translate(11.2523 3.37082)" fill="black"/>
</svg>
