<svg width="37" height="37" viewBox="0 0 37 37" fill="none" xmlns="http://www.w3.org/2000/svg">
<rect width="37" height="37" fill="black" fill-opacity="0"/>
<rect width="37" height="37" fill="black" fill-opacity="0"/>
<rect width="37" height="37" fill="black" fill-opacity="0"/>
<path d="M36.9824 29.2002C37.0608 29.8012 36.8777 30.3238 36.434 30.768L31.2245 35.9415C30.9895 36.2028 30.6827 36.4251 30.3041 36.6078C29.9254 36.7908 29.5534 36.9084 29.1879 36.9606C29.1618 36.9606 29.0833 36.9673 28.9527 36.9803C28.8223 36.9933 28.6525 37 28.4436 37C27.9474 37 27.1443 36.9151 26.0345 36.7452C24.9247 36.5753 23.5669 36.1571 21.9611 35.4909C20.3549 34.8246 18.5336 33.825 16.4969 32.4925C14.4601 31.1601 12.2927 29.3309 9.99477 27.0052C8.16687 25.2023 6.65232 23.4777 5.45113 21.8316C4.24994 20.1853 3.28376 18.6633 2.5526 17.2653C1.82137 15.8674 1.273 14.6001 0.907423 13.4634C0.541842 12.3268 0.29377 11.3469 0.163205 10.5238C0.0326411 9.70072 -0.0195847 9.05401 0.00652822 8.58367C0.0326411 8.11333 0.0456975 7.85203 0.0456975 7.79977C0.0979233 7.43396 0.215431 7.0616 0.398221 6.68272C0.581012 6.30384 0.802971 5.99681 1.0641 5.76164L6.27362 0.548728C6.6392 0.182909 7.05701 -4.1227e-10 7.52704 -4.1227e-10C7.86651 -4.1227e-10 8.1668 0.0979871 8.42793 0.293961C8.68906 0.489936 8.91102 0.731637 9.09381 1.01907L13.2849 8.97562C13.5199 9.3937 13.5852 9.85097 13.4808 10.3474C13.3763 10.8439 13.1544 11.262 12.8149 11.6017L10.8956 13.5222C10.8434 13.5745 10.7977 13.6594 10.7585 13.777C10.7193 13.8946 10.6998 13.9926 10.6998 14.0709C10.8042 14.6197 11.0392 15.2468 11.4048 15.9523C11.7182 16.5794 12.2012 17.3437 12.8541 18.2452C13.5069 19.1467 14.4339 20.1853 15.6351 21.3611C16.8102 22.5632 17.8547 23.4972 18.7686 24.1637C19.6824 24.8297 20.4464 25.3199 21.0601 25.6334C21.6738 25.947 22.1438 26.1364 22.4701 26.2016L22.9596 26.2996C23.0118 26.2996 23.0969 26.28 23.2143 26.2408C23.3318 26.2016 23.4167 26.1559 23.469 26.1036L25.7015 23.8303C26.1718 23.4123 26.7199 23.2032 27.3467 23.2032C27.7908 23.2032 28.1431 23.2815 28.4042 23.4384H28.4433L36.0029 27.9066C36.5515 28.2465 36.8778 28.6776 36.9824 29.2002Z" fill="black"/>
</svg>
